<svg width="16" height="20" viewBox="0 0 16 20" fill="none" xmlns="http://www.w3.org/2000/svg">
<path d="M8 10.9989C7.69555 10.9954 7.39732 11.0852 7.14544 11.2562C6.89357 11.4273 6.70015 11.6714 6.59121 11.9557C6.48228 12.24 6.46306 12.5509 6.53615 12.8465C6.60923 13.1421 6.77111 13.4081 7 13.6089V14.9989C7 15.2641 7.10536 15.5185 7.29289 15.706C7.48043 15.8936 7.73478 15.9989 8 15.9989C8.26522 15.9989 8.51957 15.8936 8.70711 15.706C8.89464 15.5185 9 15.2641 9 14.9989V13.6089C9.22889 13.4081 9.39077 13.1421 9.46385 12.8465C9.53694 12.5509 9.51772 12.24 9.40879 11.9557C9.29985 11.6714 9.10643 11.4273 8.85456 11.2562C8.60268 11.0852 8.30445 10.9954 8 10.9989ZM13 6.99894H3.96214L2.87868 4.90396C2.87722 4.31015 3.05202 3.72926 3.38094 3.23486C3.70986 2.74047 4.1781 2.35481 4.72636 2.12672C5.27462 1.89863 5.87824 1.83839 6.46077 1.95361C7.0433 2.06883 7.57853 2.35433 7.99868 2.77396C8.37458 3.15803 8.64358 3.63379 8.77868 4.15396C8.81148 4.28134 8.86908 4.40101 8.94818 4.50613C9.02728 4.61125 9.12628 4.69977 9.23958 4.76663C9.35288 4.83349 9.47818 4.87738 9.60848 4.89579C9.73868 4.91421 9.87128 4.90679 9.99868 4.87396C10.1261 4.84113 11.0933 4.51311 10.3509 4.70445C9.60848 4.89579 10.5445 4.52636 10.6114 4.41308C10.6782 4.29979 10.7221 4.17444 10.7405 4.04419C10.7589 3.91394 10.7515 3.78134 10.7187 3.65396C10.4909 2.78876 10.1085 2.06159 9.40868 1.36396C8.70888 0.666323 7.81802 0.191693 6.84864 0C5.87926 -0.191693 4.87482 -0.091853 3.96214 0.286913C3.04946 0.665679 2.26948 1.30639 1.72069 2.12813C1.17189 2.94988 0.87889 3.91581 0.87868 4.90396L1.72069 6.99894C0.92504 6.99894 1.44129 7.31501 0.87868 7.87762C0.316071 8.44023 0 9.20329 0 9.99894V16.9989C0 17.7946 0.316071 18.5576 0.87868 19.1202C1.44129 19.6828 2.20435 19.9989 3 19.9989H13C13.7956 19.9989 14.5587 19.6828 15.1213 19.1202C15.6839 18.5576 16 17.7946 16 16.9989V9.99894C16 9.20329 15.6839 8.44023 15.1213 7.87762C14.5587 7.31501 13.7956 6.99894 13 6.99894ZM14 16.9989C14 17.2641 13.8946 17.5185 13.7071 17.706C13.5196 17.8936 13.2652 17.9989 13 17.9989H3C2.73478 17.9989 2.48043 17.8936 2.29289 17.706C2.10536 17.5185 2 17.2641 2 16.9989V9.99894C2 9.73372 2.10536 9.47937 2.29289 9.29183C2.48043 9.1043 2.73478 8.99894 3 8.99894H13C13.2652 8.99894 13.5196 9.1043 13.7071 9.29183C13.8946 9.47937 14 9.73372 14 9.99894V16.9989Z" fill="#7C7C7C"/>
</svg>
