<svg width="32" height="32" viewBox="0 0 32 32" fill="none" xmlns="http://www.w3.org/2000/svg">
<circle cx="16" cy="16" r="16" fill="#90CAFF"/>
<g clip-path="url(#clip0_2_15)">
<path d="M16 16C15.7348 16 15.4804 16.1054 15.2929 16.2929C15.1054 16.4804 15 16.7348 15 17V20C15 20.2652 15.1054 20.5196 15.2929 20.7071C15.4804 20.8946 15.7348 21 16 21C16.2652 21 16.5196 20.8946 16.7071 20.7071C16.8946 20.5196 17 20.2652 17 20V17C17 16.7348 16.8946 16.4804 16.7071 16.2929C16.5196 16.1054 16.2652 16 16 16ZM21 12V10C21 8.67392 20.4732 7.40215 19.5355 6.46447C18.5979 5.52678 17.3261 5 16 5C14.6739 5 13.4021 5.52678 12.4645 6.46447C11.5268 7.40215 11 8.67392 11 10V12C10.2043 12 9.44129 12.3161 8.87868 12.8787C8.31607 13.4413 8 14.2043 8 15V22C8 22.7956 8.31607 23.5587 8.87868 24.1213C9.44129 24.6839 10.2043 25 11 25H21C21.7956 25 22.5587 24.6839 23.1213 24.1213C23.6839 23.5587 24 22.7956 24 22V15C24 14.2043 23.6839 13.4413 23.1213 12.8787C22.5587 12.3161 21.7956 12 21 12ZM13 10C13 9.20435 13.3161 8.44129 13.8787 7.87868C14.4413 7.31607 15.2043 7 16 7C16.7957 7 17.5587 7.31607 18.1213 7.87868C18.6839 8.44129 19 9.20435 19 10V12H13V10ZM22 22C22 22.2652 21.8946 22.5196 21.7071 22.7071C21.5196 22.8946 21.2652 23 21 23H11C10.7348 23 10.4804 22.8946 10.2929 22.7071C10.1054 22.5196 10 22.2652 10 22V15C10 14.7348 10.1054 14.4804 10.2929 14.2929C10.4804 14.1054 10.7348 14 11 14H21C21.2652 14 21.5196 14.1054 21.7071 14.2929C21.8946 14.4804 22 14.7348 22 15V22Z" fill="white"/>
</g>
<defs>
<clipPath id="clip0_2_15">
<rect width="16" height="20" fill="white" transform="translate(8 5)"/>
</clipPath>
</defs>
</svg>
