<svg width="16" height="20" viewBox="0 0 16 20" fill="none" xmlns="http://www.w3.org/2000/svg">
<path d="M8 10.9989C7.69555 10.9954 7.39732 11.0852 7.14544 11.2562C6.89357 11.4273 6.70015 11.6714 6.59121 11.9557C6.48228 12.24 6.46306 12.5509 6.53615 12.8465C6.60923 13.1421 6.77111 13.4081 7 13.6089V14.9989C7 15.2641 7.10536 15.5185 7.29289 15.706C7.48043 15.8936 7.73478 15.9989 8 15.9989C8.26522 15.9989 8.51957 15.8936 8.70711 15.706C8.89464 15.5185 9 15.2641 9 14.9989V13.6089C9.22889 13.4081 9.39077 13.1421 9.46385 12.8465C9.53694 12.5509 9.51772 12.24 9.40879 11.9557C9.29985 11.6714 9.10643 11.4273 8.85456 11.2562C8.60268 11.0852 8.30445 10.9954 8 10.9989ZM13 6.99894H5V4.99894C4.99854 4.40513 5.17334 3.82424 5.50226 3.32984C5.83118 2.83545 6.29942 2.44979 6.84768 2.2217C7.39594 1.99361 7.99956 1.93337 8.58209 2.04859C9.16462 2.16381 9.69985 2.44931 10.12 2.86894C10.4959 3.25301 10.7649 3.72877 10.9 4.24894C10.9328 4.37632 10.9904 4.49599 11.0695 4.60111C11.1486 4.70623 11.2476 4.79475 11.3609 4.86161C11.4742 4.92847 11.5995 4.97236 11.7298 4.99077C11.86 5.00919 11.9926 5.00177 12.12 4.96894C12.2474 4.93611 12.3671 4.87851 12.4722 4.79943C12.5773 4.72035 12.6658 4.62134 12.7327 4.50806C12.7995 4.39477 12.8434 4.26942 12.8618 4.13917C12.8802 4.00892 12.8728 3.87632 12.84 3.74894C12.6122 2.88374 12.1603 2.09388 11.53 1.45894C10.8302 0.76131 9.93934 0.286679 8.96996 0.0949864C8.00058 -0.0967066 6.99614 0.00313339 6.08346 0.381899C5.17078 0.760665 4.3908 1.40137 3.84201 2.22311C3.29321 3.04486 3.00021 4.01079 3 4.99894V6.99894C2.20435 6.99894 1.44129 7.31501 0.87868 7.87762C0.316071 8.44023 0 9.20329 0 9.99894V16.9989C0 17.7946 0.316071 18.5576 0.87868 19.1202C1.44129 19.6828 2.20435 19.9989 3 19.9989H13C13.7956 19.9989 14.5587 19.6828 15.1213 19.1202C15.6839 18.5576 16 17.7946 16 16.9989V9.99894C16 9.20329 15.6839 8.44023 15.1213 7.87762C14.5587 7.31501 13.7956 6.99894 13 6.99894ZM14 16.9989C14 17.2641 13.8946 17.5185 13.7071 17.706C13.5196 17.8936 13.2652 17.9989 13 17.9989H3C2.73478 17.9989 2.48043 17.8936 2.29289 17.706C2.10536 17.5185 2 17.2641 2 16.9989V9.99894C2 9.73372 2.10536 9.47937 2.29289 9.29183C2.48043 9.1043 2.73478 8.99894 3 8.99894H13C13.2652 8.99894 13.5196 9.1043 13.7071 9.29183C13.8946 9.47937 14 9.73372 14 9.99894V16.9989Z" fill="white"/>
</svg>
