<svg width="20" height="20" viewBox="0 0 20 20" fill="none" xmlns="http://www.w3.org/2000/svg">
<path d="M20 5.31425C20.0008 5.18264 19.9755 5.05218 19.9258 4.93034C19.876 4.8085 19.8027 4.69769 19.71 4.60425L15.47 0.364246C15.3766 0.271564 15.2657 0.198239 15.1439 0.148475C15.0221 0.0987101 14.8916 0.0734851 14.76 0.074246C14.6284 0.0734851 14.4979 0.0987101 14.3761 0.148475C14.2543 0.198239 14.1434 0.271564 14.05 0.364246L11.22 3.19425L0.290016 14.1242C0.197335 14.2177 0.12401 14.3285 0.0742455 14.4503C0.0244809 14.5721 -0.000744179 14.7026 1.67143e-05 14.8342V19.0742C1.67143e-05 19.3394 0.105373 19.5938 0.29291 19.7813C0.480446 19.9689 0.7348 20.0742 1.00002 20.0742H5.24002C5.37995 20.0818 5.51991 20.0599 5.65084 20.01C5.78177 19.96 5.90073 19.8831 6.00002 19.7842L16.87 8.85425L19.71 6.07425C19.8013 5.97733 19.8756 5.86578 19.93 5.74425C19.9396 5.66454 19.9396 5.58396 19.93 5.50425C19.9347 5.4577 19.9347 5.4108 19.93 5.36425L20 5.31425ZM5 18.5742H1.5V14.8342L11.22 4.93034L15 8.57423L5 18.5742ZM16 7.57423L12.5 4.07423L15 1.57423L18.5 4.93034L16 7.57423Z" fill="white"/>
</svg>
