<svg width="79" height="49" viewBox="0 0 79 49" fill="none" xmlns="http://www.w3.org/2000/svg">
<g clip-path="url(#clip0_10_25)">
<path d="M57 20.8811L45.3333 9.54778C45.1541 9.37787 44.9429 9.24317 44.7111 9.15111C44.47 9.05595 44.213 9.00472 43.9528 9H28.3973C26.8502 9 25.3664 9.59702 24.2725 10.6597C23.1785 11.7224 22.5639 13.1638 22.5639 14.6667V37.3333C22.5639 38.8361 23.1785 40.2775 24.2725 41.3402C25.3664 42.4029 26.8502 43 28.3973 43H40.0639H51.7306C53.2776 43 54.7614 42.4029 55.8553 41.3402C56.9493 40.2775 57 38.8361 57 37.3333V22.4522C57 21.9522 57.0966 21.6824 57 21.4522C56.9032 21.2221 57.1803 21.0576 57 20.8811ZM33.0639 11.3011H43.5639V17H33.0639V11.3011ZM46.4997 40.5H33.8554V33.5C33.8554 32.9991 33.8659 31.7155 34.2306 31.3613C34.5952 31.0071 35.9997 31 36.9997 31H43.9528C44.4685 31 45.5327 31.0071 45.8972 31.3613C46.2618 31.7155 46.4997 32.9991 46.4997 33.5V40.5ZM54.3582 37.3333C54.3582 37.8343 54.2228 38.5981 53.8582 38.9522C53.4936 39.3064 52.3739 40.4522 51.8582 40.4522L48.8582 40.5V33.5C48.8582 31.9972 48.9521 30.5149 47.8582 29.4522C46.7642 28.3895 45.4998 28.5 43.9528 28.5H36.175C34.6279 28.5 33.3801 28.486 32.2861 29.5487C31.1922 30.6113 31.3554 31.9972 31.3554 33.5V40.5H28.3973C27.8816 40.5 27.3554 40.5 27.3554 40.5C25.6884 41.0533 25.0639 37.8343 25.0639 37.3333V15.4411C25.0639 14.9401 25.6993 12.8065 26.0639 12.4522C26.4286 12.098 28.3973 11.0521 29.5639 11.3011H30.5639V17.4522C30.5639 17.9532 30.6993 18.0902 31.0639 18.4444C31.4286 18.7987 31.7704 18.9522 32.2861 18.9522H38.0639L44.0639 19C44.5796 19 44.9688 18.7987 45.3333 18.4444C45.6979 18.0902 45.8972 17.501 45.8972 17V13L54.3582 21.4522V37.3333Z" fill="#EAEAEA"/>
</g>
<defs>
<clipPath id="clip0_10_25">
<rect width="79" height="49" fill="white"/>
</clipPath>
</defs>
</svg>
